<svg width="201" height="28" viewBox="0 0 201 28" fill="none" xmlns="http://www.w3.org/2000/svg">
<path d="M1.16503 15.568C1.16503 18.646 3.16303 20.644 5.84503 20.644C7.80703 20.644 9.17503 19.582 9.75103 18.322V20.5H11.011V10.672H9.75103V12.832C9.19303 11.59 7.84303 10.528 5.86303 10.528C3.16303 10.528 1.16503 12.49 1.16503 15.568ZM9.75103 15.586C9.75103 18.034 8.11303 19.546 6.09703 19.546C4.02703 19.546 2.44303 18.052 2.44303 15.568C2.44303 13.066 4.02703 11.626 6.09703 11.626C8.11303 11.626 9.75103 13.138 9.75103 15.586ZM13.3115 15.568C13.3115 18.646 15.3095 20.644 18.0095 20.644C19.9535 20.644 21.3215 19.6 21.8975 18.304V20.5H23.1575V7.18H21.8975V12.796C21.2675 11.5 19.7915 10.528 18.0275 10.528C15.3095 10.528 13.3115 12.49 13.3115 15.568ZM21.8975 15.586C21.8975 18.034 20.2595 19.546 18.2435 19.546C16.1735 19.546 14.5895 18.052 14.5895 15.568C14.5895 13.066 16.1735 11.626 18.2435 11.626C20.2595 11.626 21.8975 13.138 21.8975 15.586ZM32.838 17.89C32.784 14.416 26.97 15.838 26.97 13.174C26.97 12.31 27.798 11.608 29.112 11.608C30.606 11.608 31.416 12.436 31.488 13.534H32.748C32.64 11.644 31.254 10.528 29.148 10.528C27.078 10.528 25.692 11.734 25.692 13.192C25.692 16.882 31.596 15.46 31.596 17.89C31.596 18.826 30.804 19.582 29.4 19.582C27.798 19.582 26.862 18.808 26.754 17.728H25.458C25.62 19.528 27.186 20.644 29.418 20.644C31.452 20.644 32.838 19.474 32.838 17.89ZM41.3912 12.85V7.18H40.1492V20.5H41.3912V18.34C41.9852 19.618 43.3352 20.644 45.2972 20.644C47.9792 20.644 49.9772 18.646 49.9772 15.568C49.9772 12.49 47.9972 10.528 45.2972 10.528C43.3712 10.528 42.0032 11.554 41.3912 12.85ZM48.6992 15.568C48.6992 18.052 47.1152 19.546 45.0452 19.546C43.0472 19.546 41.3912 18.034 41.3912 15.586C41.3912 13.138 43.0472 11.626 45.0452 11.626C47.1152 11.626 48.6992 13.066 48.6992 15.568ZM55.8597 19.06L52.5117 10.672H51.1257L55.1577 20.446L53.2497 25.126H54.5637L60.3957 10.672H59.0997L55.8597 19.06ZM66.4654 20.5H69.0214V12.598H70.7674V10.528H69.0214V10.114C69.0214 8.998 69.4354 8.602 70.6594 8.638V6.514C67.8514 6.442 66.4654 7.576 66.4654 10.024V10.528H65.3314V12.598H66.4654V20.5ZM76.6844 12.436C77.9804 12.436 79.0244 13.264 79.0604 14.578H74.3264C74.5244 13.21 75.4784 12.436 76.6844 12.436ZM81.4184 17.368H78.7004C78.3764 18.034 77.7824 18.574 76.7024 18.574C75.4424 18.574 74.4344 17.746 74.3084 16.27H81.5984C81.6524 15.946 81.6704 15.622 81.6704 15.298C81.6704 12.328 79.6364 10.366 76.7564 10.366C73.8044 10.366 71.7524 12.364 71.7524 15.514C71.7524 18.646 73.8584 20.662 76.7564 20.662C79.2224 20.662 80.8784 19.204 81.4184 17.368ZM91.2498 17.656C91.1778 14.002 85.6518 15.136 85.6518 13.318C85.6518 12.742 86.1378 12.364 87.0738 12.364C88.0638 12.364 88.6758 12.886 88.7478 13.66H91.1598C91.0158 11.68 89.5578 10.366 87.1458 10.366C84.6798 10.366 83.2038 11.698 83.2038 13.354C83.2038 17.008 88.8378 15.874 88.8378 17.656C88.8378 18.232 88.2978 18.682 87.3078 18.682C86.2998 18.682 85.5978 18.106 85.5078 17.35H82.9698C83.0778 19.204 84.8238 20.662 87.3258 20.662C89.7558 20.662 91.2498 19.366 91.2498 17.656ZM93.7144 17.404C93.7144 19.69 94.9924 20.5 96.9004 20.5H98.4844V18.376H97.3144C96.5224 18.376 96.2524 18.088 96.2524 17.422V12.598H98.4844V10.528H96.2524V8.062H93.7144V10.528H92.5264V12.598H93.7144V17.404ZM100.297 20.5H102.817V10.528H100.297V20.5ZM101.575 9.34C102.457 9.34 103.123 8.692 103.123 7.864C103.123 7.036 102.457 6.388 101.575 6.388C100.675 6.388 100.027 7.036 100.027 7.864C100.027 8.692 100.675 9.34 101.575 9.34ZM104.245 10.528L107.917 20.5H110.977L114.667 10.528H111.985L109.465 18.178L106.945 10.528H104.245ZM115.434 15.478C115.434 18.592 117.45 20.662 119.97 20.662C121.554 20.662 122.688 19.906 123.282 19.042V20.5H125.82V10.528H123.282V11.95C122.688 11.122 121.59 10.366 119.988 10.366C117.45 10.366 115.434 12.364 115.434 15.478ZM123.282 15.514C123.282 17.404 122.022 18.448 120.636 18.448C119.286 18.448 118.008 17.368 118.008 15.478C118.008 13.588 119.286 12.58 120.636 12.58C122.022 12.58 123.282 13.624 123.282 15.514ZM128.281 20.5H130.801V7.18H128.281V20.5Z" fill="black"/>
<path d="M169.874 22.0253C169.331 22.0284 168.798 21.8769 168.338 21.5884C167.878 21.2999 167.509 20.8864 167.275 20.3962L167.219 20.2554L163.99 10.2491C163.922 10.1363 163.827 10.043 163.713 9.9781C163.599 9.91324 163.47 9.87913 163.339 9.87913C163.208 9.87913 163.079 9.91324 162.965 9.9781C162.851 10.043 162.755 10.1363 162.688 10.2491L159.435 20.3275L159.403 20.3962C159.156 20.9024 158.766 21.3257 158.283 21.6143C157.799 21.903 157.242 22.0445 156.679 22.0215C156.116 21.9986 155.572 21.8122 155.114 21.4852C154.655 21.1581 154.302 20.7046 154.097 20.1799L149.187 7.39604C149.13 7.24987 149.028 7.12513 148.897 7.03909C148.766 6.95305 148.611 6.90997 148.454 6.91582C148.297 6.92166 148.146 6.97614 148.021 7.07172C147.897 7.16729 147.805 7.29923 147.759 7.44926L145.833 13.77C145.655 14.3668 145.289 14.8902 144.789 15.2616C144.29 15.6329 143.683 15.8323 143.06 15.8299H138.738C138.454 15.8299 138.181 15.7171 137.98 15.5162C137.779 15.3153 137.667 15.0428 137.667 14.7587C137.667 14.4746 137.779 14.2022 137.98 14.0013C138.181 13.8004 138.454 13.6876 138.738 13.6876H143.058C143.22 13.6885 143.378 13.637 143.509 13.5408C143.639 13.4446 143.735 13.3088 143.781 13.1537L145.711 6.8244C145.886 6.24798 146.237 5.74054 146.714 5.3727C147.191 5.00486 147.771 4.79491 148.373 4.77206C148.975 4.7492 149.569 4.91459 150.073 5.2452C150.577 5.57582 150.965 6.05521 151.183 6.61668L156.091 19.4006C156.143 19.5327 156.23 19.6477 156.344 19.7325C156.458 19.8172 156.593 19.8683 156.735 19.88C156.876 19.8916 157.018 19.8633 157.144 19.7983C157.27 19.7332 157.375 19.6341 157.447 19.5121L160.709 9.43199L160.742 9.36332C160.98 8.87505 161.35 8.46352 161.811 8.17565C162.272 7.88778 162.804 7.73515 163.348 7.73515C163.891 7.73515 164.423 7.88778 164.884 8.17565C165.345 8.46352 165.715 8.87505 165.953 9.36332L166.01 9.50409L169.23 19.5053C169.303 19.6272 169.408 19.7264 169.534 19.7914C169.66 19.8564 169.802 19.8847 169.943 19.8731C170.085 19.8615 170.22 19.8104 170.334 19.7256C170.447 19.6408 170.535 19.5258 170.587 19.3937L177.235 2.34566C177.454 1.7844 177.843 1.30529 178.346 0.974893C178.85 0.644501 179.444 0.479243 180.046 0.502086C180.648 0.524928 181.228 0.734736 181.706 1.10235C182.183 1.46997 182.534 1.97714 182.71 2.55338L184.637 8.87407C184.684 9.02978 184.78 9.16623 184.91 9.26307C185.041 9.3599 185.199 9.41193 185.362 9.41139H198.937C199.081 9.40561 199.225 9.42902 199.36 9.48021C199.495 9.53139 199.618 9.6093 199.722 9.70926C199.826 9.80922 199.909 9.92917 199.965 10.0619C200.022 10.1946 200.051 10.3374 200.051 10.4817C200.051 10.626 200.022 10.7688 199.965 10.9015C199.909 11.0343 199.826 11.1542 199.722 11.2542C199.618 11.3541 199.495 11.432 199.36 11.4832C199.225 11.5344 199.081 11.5578 198.937 11.552H185.362C184.739 11.5543 184.132 11.3548 183.632 10.9835C183.132 10.6122 182.766 10.0889 182.588 9.49207L180.66 3.18511C180.614 3.03507 180.522 2.90314 180.397 2.80756C180.273 2.71199 180.122 2.65751 179.965 2.65166C179.808 2.64582 179.653 2.6889 179.522 2.77494C179.39 2.86097 179.289 2.98572 179.232 3.13189L172.581 20.1799C172.381 20.7064 172.03 21.162 171.572 21.4897C171.114 21.8174 170.569 22.0025 170.006 22.0219L169.874 22.0253Z" fill="#0B0C10"/>
</svg>
