<svg width="201" height="28" viewBox="0 0 201 28" fill="none" xmlns="http://www.w3.org/2000/svg">
<path d="M1.5421 15.8307C1.5421 18.9087 3.5401 20.9067 6.2221 20.9067C8.1841 20.9067 9.5521 19.8447 10.1281 18.5847V20.7627H11.3881V10.9347H10.1281V13.0947C9.5701 11.8527 8.2201 10.7907 6.2401 10.7907C3.5401 10.7907 1.5421 12.7527 1.5421 15.8307ZM10.1281 15.8487C10.1281 18.2967 8.4901 19.8087 6.4741 19.8087C4.4041 19.8087 2.8201 18.3147 2.8201 15.8307C2.8201 13.3287 4.4041 11.8887 6.4741 11.8887C8.4901 11.8887 10.1281 13.4007 10.1281 15.8487ZM13.6886 15.8307C13.6886 18.9087 15.6866 20.9067 18.3866 20.9067C20.3306 20.9067 21.6986 19.8627 22.2746 18.5667V20.7627H23.5346V7.44268H22.2746V13.0587C21.6446 11.7627 20.1686 10.7907 18.4046 10.7907C15.6866 10.7907 13.6886 12.7527 13.6886 15.8307ZM22.2746 15.8487C22.2746 18.2967 20.6366 19.8087 18.6206 19.8087C16.5506 19.8087 14.9666 18.3147 14.9666 15.8307C14.9666 13.3287 16.5506 11.8887 18.6206 11.8887C20.6366 11.8887 22.2746 13.4007 22.2746 15.8487ZM33.2151 18.1527C33.1611 14.6787 27.3471 16.1007 27.3471 13.4367C27.3471 12.5727 28.1751 11.8707 29.4891 11.8707C30.9831 11.8707 31.7931 12.6987 31.8651 13.7967H33.1251C33.0171 11.9067 31.6311 10.7907 29.5251 10.7907C27.4551 10.7907 26.0691 11.9967 26.0691 13.4547C26.0691 17.1447 31.9731 15.7227 31.9731 18.1527C31.9731 19.0887 31.1811 19.8447 29.7771 19.8447C28.1751 19.8447 27.2391 19.0707 27.1311 17.9907H25.8351C25.9971 19.7907 27.5631 20.9067 29.7951 20.9067C31.8291 20.9067 33.2151 19.7367 33.2151 18.1527ZM41.7683 13.1127V7.44268H40.5263V20.7627H41.7683V18.6027C42.3623 19.8807 43.7123 20.9067 45.6743 20.9067C48.3563 20.9067 50.3543 18.9087 50.3543 15.8307C50.3543 12.7527 48.3743 10.7907 45.6743 10.7907C43.7483 10.7907 42.3803 11.8167 41.7683 13.1127ZM49.0763 15.8307C49.0763 18.3147 47.4923 19.8087 45.4223 19.8087C43.4243 19.8087 41.7683 18.2967 41.7683 15.8487C41.7683 13.4007 43.4243 11.8887 45.4223 11.8887C47.4923 11.8887 49.0763 13.3287 49.0763 15.8307ZM56.2368 19.3227L52.8888 10.9347H51.5028L55.5348 20.7087L53.6268 25.3887H54.9408L60.7728 10.9347H59.4768L56.2368 19.3227ZM66.8424 20.7627H69.3984V12.8607H71.1444V10.7907H69.3984V10.3767C69.3984 9.26068 69.8124 8.86468 71.0364 8.90068V6.77668C68.2284 6.70468 66.8424 7.83868 66.8424 10.2867V10.7907H65.7084V12.8607H66.8424V20.7627ZM77.0615 12.6987C78.3575 12.6987 79.4015 13.5267 79.4375 14.8407H74.7035C74.9015 13.4727 75.8555 12.6987 77.0615 12.6987ZM81.7955 17.6307H79.0775C78.7535 18.2967 78.1595 18.8367 77.0795 18.8367C75.8195 18.8367 74.8115 18.0087 74.6855 16.5327H81.9755C82.0295 16.2087 82.0475 15.8847 82.0475 15.5607C82.0475 12.5907 80.0135 10.6287 77.1335 10.6287C74.1815 10.6287 72.1295 12.6267 72.1295 15.7767C72.1295 18.9087 74.2355 20.9247 77.1335 20.9247C79.5995 20.9247 81.2555 19.4667 81.7955 17.6307ZM91.6269 17.9187C91.5549 14.2647 86.0289 15.3987 86.0289 13.5807C86.0289 13.0047 86.5149 12.6267 87.4509 12.6267C88.4409 12.6267 89.0529 13.1487 89.1249 13.9227H91.5369C91.3929 11.9427 89.9349 10.6287 87.5229 10.6287C85.0569 10.6287 83.5809 11.9607 83.5809 13.6167C83.5809 17.2707 89.2149 16.1367 89.2149 17.9187C89.2149 18.4947 88.6749 18.9447 87.6849 18.9447C86.6769 18.9447 85.9749 18.3687 85.8849 17.6127H83.3469C83.4549 19.4667 85.2009 20.9247 87.7029 20.9247C90.1329 20.9247 91.6269 19.6287 91.6269 17.9187ZM94.0915 17.6667C94.0915 19.9527 95.3695 20.7627 97.2775 20.7627H98.8615V18.6387H97.6915C96.8995 18.6387 96.6295 18.3507 96.6295 17.6847V12.8607H98.8615V10.7907H96.6295V8.32468H94.0915V10.7907H92.9035V12.8607H94.0915V17.6667ZM100.674 20.7627H103.194V10.7907H100.674V20.7627ZM101.952 9.60268C102.834 9.60268 103.5 8.95468 103.5 8.12668C103.5 7.29868 102.834 6.65068 101.952 6.65068C101.052 6.65068 100.404 7.29868 100.404 8.12668C100.404 8.95468 101.052 9.60268 101.952 9.60268ZM104.622 10.7907L108.294 20.7627H111.354L115.044 10.7907H112.362L109.842 18.4407L107.322 10.7907H104.622ZM115.811 15.7407C115.811 18.8547 117.827 20.9247 120.347 20.9247C121.931 20.9247 123.065 20.1687 123.659 19.3047V20.7627H126.197V10.7907H123.659V12.2127C123.065 11.3847 121.967 10.6287 120.365 10.6287C117.827 10.6287 115.811 12.6267 115.811 15.7407ZM123.659 15.7767C123.659 17.6667 122.399 18.7107 121.013 18.7107C119.663 18.7107 118.385 17.6307 118.385 15.7407C118.385 13.8507 119.663 12.8427 121.013 12.8427C122.399 12.8427 123.659 13.8867 123.659 15.7767ZM128.658 20.7627H131.178V7.44268H128.658V20.7627Z" fill="white"/>
<path d="M170.251 22.288C169.708 22.2911 169.175 22.1396 168.715 21.8511C168.255 21.5626 167.886 21.1491 167.652 20.6589L167.596 20.5181L164.367 10.5118C164.3 10.399 164.204 10.3056 164.09 10.2408C163.976 10.1759 163.847 10.1418 163.716 10.1418C163.585 10.1418 163.456 10.1759 163.342 10.2408C163.228 10.3056 163.133 10.399 163.065 10.5118L159.812 20.5902L159.78 20.6589C159.533 21.1651 159.144 21.5884 158.66 21.877C158.176 22.1657 157.619 22.3071 157.056 22.2842C156.493 22.2613 155.949 22.0749 155.491 21.7478C155.032 21.4208 154.679 20.9672 154.474 20.4426L149.564 7.65872C149.507 7.51255 149.405 7.38781 149.274 7.30177C149.143 7.21573 148.988 7.17265 148.831 7.1785C148.674 7.18434 148.523 7.23882 148.398 7.3344C148.274 7.42997 148.182 7.56191 148.136 7.71194L146.21 14.0326C146.032 14.6295 145.666 15.1529 145.166 15.5242C144.667 15.8956 144.06 16.095 143.437 16.0926H139.115C138.831 16.0926 138.558 15.9798 138.357 15.7789C138.156 15.578 138.044 15.3055 138.044 15.0214C138.044 14.7373 138.156 14.4649 138.357 14.264C138.558 14.0631 138.831 13.9502 139.115 13.9502H143.436C143.598 13.9512 143.755 13.8997 143.886 13.8035C144.016 13.7072 144.112 13.5714 144.158 13.4164L146.088 7.08708C146.263 6.51066 146.614 6.00322 147.091 5.63538C147.568 5.26754 148.148 5.05759 148.75 5.03474C149.352 5.01188 149.946 5.17727 150.45 5.50788C150.954 5.8385 151.342 6.31789 151.56 6.87936L156.468 19.6632C156.52 19.7954 156.608 19.9104 156.721 19.9952C156.835 20.0799 156.97 20.131 157.112 20.1427C157.253 20.1543 157.395 20.126 157.521 20.0609C157.647 19.9959 157.752 19.8968 157.825 19.7748L161.086 9.69467L161.119 9.626C161.357 9.13773 161.728 8.7262 162.188 8.43833C162.649 8.15046 163.181 7.99783 163.725 7.99783C164.268 7.99783 164.8 8.15046 165.261 8.43833C165.722 8.7262 166.092 9.13773 166.33 9.626L166.387 9.76677L169.608 19.768C169.68 19.8899 169.785 19.989 169.911 20.0541C170.037 20.1191 170.179 20.1474 170.321 20.1358C170.462 20.1242 170.597 20.073 170.711 19.9883C170.825 19.9035 170.912 19.7885 170.964 19.6564L177.612 2.60834C177.831 2.04708 178.22 1.56797 178.723 1.23757C179.227 0.907181 179.821 0.741923 180.423 0.764766C181.025 0.787608 181.605 0.997416 182.083 1.36503C182.56 1.73265 182.911 2.23982 183.087 2.81606L185.014 9.13676C185.061 9.29246 185.157 9.42892 185.287 9.52575C185.418 9.62258 185.576 9.67461 185.739 9.67407H199.314C199.458 9.66829 199.602 9.6917 199.737 9.74289C199.872 9.79407 199.995 9.87198 200.099 9.97194C200.203 10.0719 200.286 10.1918 200.343 10.3246C200.399 10.4573 200.428 10.6001 200.428 10.7444C200.428 10.8887 200.399 11.0315 200.343 11.1642C200.286 11.2969 200.203 11.4169 200.099 11.5168C199.995 11.6168 199.872 11.6947 199.737 11.7459C199.602 11.7971 199.458 11.8205 199.314 11.8147H185.739C185.116 11.817 184.509 11.6175 184.009 11.2462C183.509 10.8749 183.143 10.3516 182.965 9.75475L181.037 3.44779C180.991 3.29775 180.899 3.16582 180.774 3.07024C180.65 2.97467 180.499 2.92019 180.342 2.91435C180.185 2.9085 180.03 2.95158 179.899 3.03762C179.767 3.12365 179.666 3.2484 179.609 3.39457L172.958 20.4426C172.758 20.9691 172.407 21.4247 171.949 21.7524C171.491 22.0801 170.946 22.2652 170.384 22.2846L170.251 22.288Z" fill="white"/>
</svg>
